<svg width="557" height="237" viewBox="0 0 557 237" fill="none" xmlns="http://www.w3.org/2000/svg">
<path d="M26.34 37.134C26.34 37.134 2.30975 93.8584 26.34 117.202C49.6838 139.879 109.676 117.202 109.676 117.202" stroke="#AB9FED" stroke-width="18" stroke-linecap="round"/>
<path d="M10 155.602C10 155.602 36.9617 171.126 64.7404 171.126M64.7404 171.126C102.323 171.126 139.549 155.602 139.549 155.602M64.7404 171.126C64.7404 171.126 68.8255 199.721 36.9617 227.5M130.102 35.5C130.102 35.5 152.162 135.994 130.102 227.5" stroke="#AB9FED" stroke-width="18" stroke-linecap="round"/>
<path d="M241.5 139.277C238 115.277 213 111.777 213 111.777C213 111.777 183 106.777 183 139.277C183 171.777 241.5 154 241.5 198C241.5 211.597 229 221.935 213 222.777C197 223.619 186 211.277 183 202.777" stroke="#FE94C1" stroke-width="18" stroke-linecap="round"/>
<path d="M320.5 139.277C317 115.277 292 111.777 292 111.777C292 111.777 262 106.777 262 139.277C262 171.777 320.5 154 320.5 198C320.5 211.597 308 221.935 292 222.777C276 223.619 265 211.277 262 202.777" stroke="#FE94C1" stroke-width="18" stroke-linecap="round"/>
<path d="M347.498 113.5C342.5 117 342.996 186.5 347.498 199C352 211.5 363.996 221.5 373.998 221.5C384 221.5 394.496 212.5 398.498 199C402.5 185.5 403.5 121.5 398.498 113.5" stroke="#FE94C1" stroke-width="18" stroke-linecap="round"/>
<path d="M489.08 108.961C489.08 108.961 495.759 96.8217 506.001 94.7C517.109 92.399 532.905 95.1714 539.001 104.738C544.909 114.01 544.862 123.597 541.169 133.952C535.669 149.37 517.594 156.051 501.547 152.814C493.401 151.17 490.561 147.824 484.27 147.083C471.978 145.635 455.287 164.422 455.287 164.422" stroke="#AB9FED" stroke-width="15" stroke-linecap="round"/>
<circle cx="438.085" cy="178.257" r="4.08949" transform="rotate(56.5075 438.085 178.257)" stroke="#AB9FED" stroke-width="15"/>
<path d="M356 9L335 40.5C335 40.5 312 31 302 45C292 59 317.5 77.5 317.5 77.5L309 92" stroke="#AB9FED" stroke-width="18" stroke-linecap="round" stroke-linejoin="round"/>
<circle cx="401.5" cy="46" r="10.5" fill="#AB9FED"/>
</svg>
