<svg width="321" height="25" viewBox="0 0 321 25" fill="none" xmlns="http://www.w3.org/2000/svg">
<rect y="3" width="321" height="20" fill="#C7EBFF"/>
<path d="M12.1522 16L12.7322 13.31L11.6822 8.86H12.7622L13.4522 12.24L15.5222 8.86H16.7322L13.7822 13.33L13.2222 16H12.1522ZM17.6627 16.09C17.2761 16.09 16.9394 16.0067 16.6527 15.84C16.3727 15.6733 16.1527 15.4367 15.9927 15.13C15.8394 14.8233 15.7627 14.46 15.7627 14.04C15.7627 13.7 15.7994 13.36 15.8727 13.02C15.9461 12.68 16.0527 12.36 16.1927 12.06C16.3327 11.76 16.5094 11.4967 16.7227 11.27C16.9427 11.0367 17.1927 10.8567 17.4727 10.73C17.7594 10.5967 18.0794 10.53 18.4327 10.53C18.8261 10.53 19.1627 10.6133 19.4427 10.78C19.7294 10.9467 19.9494 11.1867 20.1027 11.5C20.2561 11.8067 20.3327 12.1733 20.3327 12.6C20.3327 12.94 20.2961 13.2767 20.2227 13.61C20.1494 13.9433 20.0427 14.26 19.9027 14.56C19.7627 14.8533 19.5861 15.1167 19.3727 15.35C19.1594 15.5767 18.9094 15.7567 18.6227 15.89C18.3427 16.0233 18.0227 16.09 17.6627 16.09ZM17.7627 15.22C17.9294 15.22 18.0894 15.18 18.2427 15.1C18.3961 15.0133 18.5327 14.8933 18.6527 14.74C18.7794 14.58 18.8861 14.39 18.9727 14.17C19.0661 13.95 19.1361 13.7033 19.1827 13.43C19.2361 13.1567 19.2627 12.86 19.2627 12.54C19.2627 12.3467 19.2327 12.1633 19.1727 11.99C19.1194 11.8167 19.0294 11.6767 18.9027 11.57C18.7761 11.4567 18.6027 11.4 18.3827 11.4C18.1894 11.4 18.0094 11.45 17.8427 11.55C17.6827 11.6433 17.5394 11.7767 17.4127 11.95C17.2927 12.1233 17.1861 12.3233 17.0927 12.55C17.0061 12.77 16.9394 13.01 16.8927 13.27C16.8527 13.5233 16.8327 13.7833 16.8327 14.05C16.8327 14.4233 16.9094 14.7133 17.0627 14.92C17.2227 15.12 17.4561 15.22 17.7627 15.22ZM22.5324 16.1C22.2658 16.1 22.0358 16.0467 21.8424 15.94C21.6558 15.8333 21.5124 15.6767 21.4124 15.47C21.3124 15.2633 21.2624 15.0133 21.2624 14.72C21.2624 14.5733 21.2724 14.4233 21.2924 14.27C21.3124 14.1167 21.3391 13.9567 21.3724 13.79L22.0524 10.61H23.1124L22.4124 13.93C22.3858 14.0633 22.3624 14.1833 22.3424 14.29C22.3291 14.3967 22.3224 14.4933 22.3224 14.58C22.3224 14.7867 22.3691 14.9467 22.4624 15.06C22.5558 15.1733 22.7058 15.23 22.9124 15.23C23.1258 15.23 23.3391 15.1467 23.5524 14.98C23.7724 14.8133 23.9758 14.56 24.1624 14.22C24.3491 13.8733 24.4991 13.4367 24.6124 12.91L25.1024 10.61H26.1424L25.0024 16H24.1624L24.2724 15H24.2324C24.1058 15.18 23.9591 15.3567 23.7924 15.53C23.6324 15.6967 23.4491 15.8333 23.2424 15.94C23.0358 16.0467 22.7991 16.1 22.5324 16.1ZM26.5484 16L27.6984 10.61H28.5284L28.4184 11.61H28.4684C28.6084 11.41 28.755 11.23 28.9084 11.07C29.0617 10.9033 29.2317 10.77 29.4184 10.67C29.605 10.5633 29.815 10.51 30.0484 10.51C30.135 10.51 30.225 10.5167 30.3184 10.53C30.4117 10.5367 30.4917 10.55 30.5584 10.57L30.3184 11.55C30.245 11.53 30.1684 11.5133 30.0884 11.5C30.0084 11.4867 29.925 11.48 29.8384 11.48C29.625 11.48 29.425 11.5367 29.2384 11.65C29.0584 11.7633 28.895 11.9167 28.7484 12.11C28.6017 12.3033 28.475 12.5233 28.3684 12.77C28.2617 13.0167 28.1784 13.2767 28.1184 13.55L27.5984 16H26.5484ZM31.7158 16.1C31.4024 16.1 31.1258 16.07 30.8858 16.01C30.6458 15.95 30.4324 15.87 30.2458 15.77L30.2558 14.84C30.4424 14.9533 30.6591 15.0533 30.9058 15.14C31.1591 15.2267 31.4158 15.27 31.6758 15.27C31.8958 15.27 32.0791 15.24 32.2258 15.18C32.3791 15.1133 32.4991 15.0233 32.5858 14.91C32.6724 14.79 32.7158 14.6533 32.7158 14.5C32.7158 14.38 32.6924 14.2767 32.6458 14.19C32.5991 14.0967 32.5158 14.0033 32.3958 13.91C32.2824 13.8167 32.1158 13.7067 31.8958 13.58C31.6691 13.44 31.4791 13.3 31.3258 13.16C31.1724 13.02 31.0558 12.8667 30.9758 12.7C30.8958 12.5267 30.8558 12.3267 30.8558 12.1C30.8624 11.7667 30.9391 11.4833 31.0858 11.25C31.2324 11.0167 31.4424 10.8367 31.7158 10.71C31.9958 10.5767 32.3258 10.51 32.7058 10.51C33.0124 10.51 33.2991 10.5467 33.5658 10.62C33.8324 10.6933 34.0724 10.79 34.2858 10.91L33.9458 11.71C33.7724 11.6233 33.5824 11.5433 33.3758 11.47C33.1758 11.3967 32.9491 11.36 32.6958 11.36C32.4691 11.36 32.2824 11.42 32.1358 11.54C31.9891 11.66 31.9158 11.82 31.9158 12.02C31.9158 12.12 31.9391 12.2133 31.9858 12.3C32.0324 12.38 32.1124 12.4667 32.2258 12.56C32.3391 12.6467 32.4958 12.7533 32.6958 12.88C32.9091 13.0067 33.0991 13.1367 33.2658 13.27C33.4324 13.4033 33.5624 13.56 33.6558 13.74C33.7491 13.9133 33.7958 14.1267 33.7958 14.38C33.7891 14.7533 33.6991 15.07 33.5258 15.33C33.3591 15.5833 33.1191 15.7767 32.8058 15.91C32.4991 16.0367 32.1358 16.1 31.7158 16.1ZM35.9638 16.1C35.6505 16.1 35.3738 16.07 35.1338 16.01C34.8938 15.95 34.6805 15.87 34.4938 15.77L34.5038 14.84C34.6905 14.9533 34.9072 15.0533 35.1538 15.14C35.4072 15.2267 35.6638 15.27 35.9238 15.27C36.1438 15.27 36.3272 15.24 36.4738 15.18C36.6272 15.1133 36.7472 15.0233 36.8338 14.91C36.9205 14.79 36.9638 14.6533 36.9638 14.5C36.9638 14.38 36.9405 14.2767 36.8938 14.19C36.8472 14.0967 36.7638 14.0033 36.6438 13.91C36.5305 13.8167 36.3638 13.7067 36.1438 13.58C35.9172 13.44 35.7272 13.3 35.5738 13.16C35.4205 13.02 35.3038 12.8667 35.2238 12.7C35.1438 12.5267 35.1038 12.3267 35.1038 12.1C35.1105 11.7667 35.1872 11.4833 35.3338 11.25C35.4805 11.0167 35.6905 10.8367 35.9638 10.71C36.2438 10.5767 36.5738 10.51 36.9538 10.51C37.2605 10.51 37.5472 10.5467 37.8138 10.62C38.0805 10.6933 38.3205 10.79 38.5338 10.91L38.1938 11.71C38.0205 11.6233 37.8305 11.5433 37.6238 11.47C37.4238 11.3967 37.1972 11.36 36.9438 11.36C36.7172 11.36 36.5305 11.42 36.3838 11.54C36.2372 11.66 36.1638 11.82 36.1638 12.02C36.1638 12.12 36.1872 12.2133 36.2338 12.3C36.2805 12.38 36.3605 12.4667 36.4738 12.56C36.5872 12.6467 36.7438 12.7533 36.9438 12.88C37.1572 13.0067 37.3472 13.1367 37.5138 13.27C37.6805 13.4033 37.8105 13.56 37.9038 13.74C37.9972 13.9133 38.0438 14.1267 38.0438 14.38C38.0372 14.7533 37.9472 15.07 37.7738 15.33C37.6072 15.5833 37.3672 15.7767 37.0538 15.91C36.7472 16.0367 36.3838 16.1 35.9638 16.1ZM40.4719 16.1C40.2052 16.1 39.9752 16.0467 39.7819 15.94C39.5952 15.8333 39.4519 15.6767 39.3519 15.47C39.2519 15.2633 39.2019 15.0133 39.2019 14.72C39.2019 14.5733 39.2119 14.4233 39.2319 14.27C39.2519 14.1167 39.2785 13.9567 39.3119 13.79L39.9919 10.61H41.0519L40.3519 13.93C40.3252 14.0633 40.3019 14.1833 40.2819 14.29C40.2685 14.3967 40.2619 14.4933 40.2619 14.58C40.2619 14.7867 40.3085 14.9467 40.4019 15.06C40.4952 15.1733 40.6452 15.23 40.8519 15.23C41.0652 15.23 41.2785 15.1467 41.4919 14.98C41.7119 14.8133 41.9152 14.56 42.1019 14.22C42.2885 13.8733 42.4385 13.4367 42.5519 12.91L43.0419 10.61H44.0819L42.9419 16H42.1019L42.2119 15H42.1719C42.0452 15.18 41.8985 15.3567 41.7319 15.53C41.5719 15.6967 41.3885 15.8333 41.1819 15.94C40.9752 16.0467 40.7385 16.1 40.4719 16.1Z" fill="white"/>
<path d="M56.1522 16L56.7322 13.31L55.6822 8.86H56.7622L57.4522 12.24L59.5222 8.86H60.7322L57.7822 13.33L57.2222 16H56.1522ZM61.6627 16.09C61.2761 16.09 60.9394 16.0067 60.6527 15.84C60.3727 15.6733 60.1527 15.4367 59.9927 15.13C59.8394 14.8233 59.7627 14.46 59.7627 14.04C59.7627 13.7 59.7994 13.36 59.8727 13.02C59.9461 12.68 60.0527 12.36 60.1927 12.06C60.3327 11.76 60.5094 11.4967 60.7227 11.27C60.9427 11.0367 61.1927 10.8567 61.4727 10.73C61.7594 10.5967 62.0794 10.53 62.4327 10.53C62.8261 10.53 63.1627 10.6133 63.4427 10.78C63.7294 10.9467 63.9494 11.1867 64.1027 11.5C64.2561 11.8067 64.3327 12.1733 64.3327 12.6C64.3327 12.94 64.2961 13.2767 64.2227 13.61C64.1494 13.9433 64.0427 14.26 63.9027 14.56C63.7627 14.8533 63.5861 15.1167 63.3727 15.35C63.1594 15.5767 62.9094 15.7567 62.6227 15.89C62.3427 16.0233 62.0227 16.09 61.6627 16.09ZM61.7627 15.22C61.9294 15.22 62.0894 15.18 62.2427 15.1C62.3961 15.0133 62.5327 14.8933 62.6527 14.74C62.7794 14.58 62.8861 14.39 62.9727 14.17C63.0661 13.95 63.1361 13.7033 63.1827 13.43C63.2361 13.1567 63.2627 12.86 63.2627 12.54C63.2627 12.3467 63.2327 12.1633 63.1727 11.99C63.1194 11.8167 63.0294 11.6767 62.9027 11.57C62.7761 11.4567 62.6027 11.4 62.3827 11.4C62.1894 11.4 62.0094 11.45 61.8427 11.55C61.6827 11.6433 61.5394 11.7767 61.4127 11.95C61.2927 12.1233 61.1861 12.3233 61.0927 12.55C61.0061 12.77 60.9394 13.01 60.8927 13.27C60.8527 13.5233 60.8327 13.7833 60.8327 14.05C60.8327 14.4233 60.9094 14.7133 61.0627 14.92C61.2227 15.12 61.4561 15.22 61.7627 15.22ZM66.5324 16.1C66.2658 16.1 66.0358 16.0467 65.8424 15.94C65.6558 15.8333 65.5124 15.6767 65.4124 15.47C65.3124 15.2633 65.2624 15.0133 65.2624 14.72C65.2624 14.5733 65.2724 14.4233 65.2924 14.27C65.3124 14.1167 65.3391 13.9567 65.3724 13.79L66.0524 10.61H67.1124L66.4124 13.93C66.3858 14.0633 66.3624 14.1833 66.3424 14.29C66.3291 14.3967 66.3224 14.4933 66.3224 14.58C66.3224 14.7867 66.3691 14.9467 66.4624 15.06C66.5558 15.1733 66.7058 15.23 66.9124 15.23C67.1258 15.23 67.3391 15.1467 67.5524 14.98C67.7724 14.8133 67.9758 14.56 68.1624 14.22C68.3491 13.8733 68.4991 13.4367 68.6124 12.91L69.1024 10.61H70.1424L69.0024 16H68.1624L68.2724 15H68.2324C68.1058 15.18 67.9591 15.3567 67.7924 15.53C67.6324 15.6967 67.4491 15.8333 67.2424 15.94C67.0358 16.0467 66.7991 16.1 66.5324 16.1ZM70.5484 16L71.6984 10.61H72.5284L72.4184 11.61H72.4684C72.6084 11.41 72.755 11.23 72.9084 11.07C73.0617 10.9033 73.2317 10.77 73.4184 10.67C73.605 10.5633 73.815 10.51 74.0484 10.51C74.135 10.51 74.225 10.5167 74.3184 10.53C74.4117 10.5367 74.4917 10.55 74.5584 10.57L74.3184 11.55C74.245 11.53 74.1684 11.5133 74.0884 11.5C74.0084 11.4867 73.925 11.48 73.8384 11.48C73.625 11.48 73.425 11.5367 73.2384 11.65C73.0584 11.7633 72.895 11.9167 72.7484 12.11C72.6017 12.3033 72.475 12.5233 72.3684 12.77C72.2617 13.0167 72.1784 13.2767 72.1184 13.55L71.5984 16H70.5484ZM75.7158 16.1C75.4024 16.1 75.1258 16.07 74.8858 16.01C74.6458 15.95 74.4324 15.87 74.2458 15.77L74.2558 14.84C74.4424 14.9533 74.6591 15.0533 74.9058 15.14C75.1591 15.2267 75.4158 15.27 75.6758 15.27C75.8958 15.27 76.0791 15.24 76.2258 15.18C76.3791 15.1133 76.4991 15.0233 76.5858 14.91C76.6724 14.79 76.7158 14.6533 76.7158 14.5C76.7158 14.38 76.6924 14.2767 76.6458 14.19C76.5991 14.0967 76.5158 14.0033 76.3958 13.91C76.2824 13.8167 76.1158 13.7067 75.8958 13.58C75.6691 13.44 75.4791 13.3 75.3258 13.16C75.1724 13.02 75.0558 12.8667 74.9758 12.7C74.8958 12.5267 74.8558 12.3267 74.8558 12.1C74.8624 11.7667 74.9391 11.4833 75.0858 11.25C75.2324 11.0167 75.4424 10.8367 75.7158 10.71C75.9958 10.5767 76.3258 10.51 76.7058 10.51C77.0124 10.51 77.2991 10.5467 77.5658 10.62C77.8324 10.6933 78.0724 10.79 78.2858 10.91L77.9458 11.71C77.7724 11.6233 77.5824 11.5433 77.3758 11.47C77.1758 11.3967 76.9491 11.36 76.6958 11.36C76.4691 11.36 76.2824 11.42 76.1358 11.54C75.9891 11.66 75.9158 11.82 75.9158 12.02C75.9158 12.12 75.9391 12.2133 75.9858 12.3C76.0324 12.38 76.1124 12.4667 76.2258 12.56C76.3391 12.6467 76.4958 12.7533 76.6958 12.88C76.9091 13.0067 77.0991 13.1367 77.2658 13.27C77.4324 13.4033 77.5624 13.56 77.6558 13.74C77.7491 13.9133 77.7958 14.1267 77.7958 14.38C77.7891 14.7533 77.6991 15.07 77.5258 15.33C77.3591 15.5833 77.1191 15.7767 76.8058 15.91C76.4991 16.0367 76.1358 16.1 75.7158 16.1ZM79.9638 16.1C79.6505 16.1 79.3738 16.07 79.1338 16.01C78.8938 15.95 78.6805 15.87 78.4938 15.77L78.5038 14.84C78.6905 14.9533 78.9072 15.0533 79.1538 15.14C79.4072 15.2267 79.6638 15.27 79.9238 15.27C80.1438 15.27 80.3272 15.24 80.4738 15.18C80.6272 15.1133 80.7472 15.0233 80.8338 14.91C80.9205 14.79 80.9638 14.6533 80.9638 14.5C80.9638 14.38 80.9405 14.2767 80.8938 14.19C80.8472 14.0967 80.7638 14.0033 80.6438 13.91C80.5305 13.8167 80.3638 13.7067 80.1438 13.58C79.9172 13.44 79.7272 13.3 79.5738 13.16C79.4205 13.02 79.3038 12.8667 79.2238 12.7C79.1438 12.5267 79.1038 12.3267 79.1038 12.1C79.1105 11.7667 79.1872 11.4833 79.3338 11.25C79.4805 11.0167 79.6905 10.8367 79.9638 10.71C80.2438 10.5767 80.5738 10.51 80.9538 10.51C81.2605 10.51 81.5472 10.5467 81.8138 10.62C82.0805 10.6933 82.3205 10.79 82.5338 10.91L82.1938 11.71C82.0205 11.6233 81.8305 11.5433 81.6238 11.47C81.4238 11.3967 81.1972 11.36 80.9438 11.36C80.7172 11.36 80.5305 11.42 80.3838 11.54C80.2372 11.66 80.1638 11.82 80.1638 12.02C80.1638 12.12 80.1872 12.2133 80.2338 12.3C80.2805 12.38 80.3605 12.4667 80.4738 12.56C80.5872 12.6467 80.7438 12.7533 80.9438 12.88C81.1572 13.0067 81.3472 13.1367 81.5138 13.27C81.6805 13.4033 81.8105 13.56 81.9038 13.74C81.9972 13.9133 82.0438 14.1267 82.0438 14.38C82.0372 14.7533 81.9472 15.07 81.7738 15.33C81.6072 15.5833 81.3672 15.7767 81.0538 15.91C80.7472 16.0367 80.3838 16.1 79.9638 16.1ZM84.4719 16.1C84.2052 16.1 83.9752 16.0467 83.7819 15.94C83.5952 15.8333 83.4519 15.6767 83.3519 15.47C83.2519 15.2633 83.2019 15.0133 83.2019 14.72C83.2019 14.5733 83.2119 14.4233 83.2319 14.27C83.2519 14.1167 83.2785 13.9567 83.3119 13.79L83.9919 10.61H85.0519L84.3519 13.93C84.3252 14.0633 84.3019 14.1833 84.2819 14.29C84.2685 14.3967 84.2619 14.4933 84.2619 14.58C84.2619 14.7867 84.3085 14.9467 84.4019 15.06C84.4952 15.1733 84.6452 15.23 84.8519 15.23C85.0652 15.23 85.2785 15.1467 85.4919 14.98C85.7119 14.8133 85.9152 14.56 86.1019 14.22C86.2885 13.8733 86.4385 13.4367 86.5519 12.91L87.0419 10.61H88.0819L86.9419 16H86.1019L86.2119 15H86.1719C86.0452 15.18 85.8985 15.3567 85.7319 15.53C85.5719 15.6967 85.3885 15.8333 85.1819 15.94C84.9752 16.0467 84.7385 16.1 84.4719 16.1Z" fill="white"/>
<path d="M100.152 16L100.732 13.31L99.6822 8.86H100.762L101.452 12.24L103.522 8.86H104.732L101.782 13.33L101.222 16H100.152ZM105.663 16.09C105.276 16.09 104.939 16.0067 104.653 15.84C104.373 15.6733 104.153 15.4367 103.993 15.13C103.839 14.8233 103.763 14.46 103.763 14.04C103.763 13.7 103.799 13.36 103.873 13.02C103.946 12.68 104.053 12.36 104.193 12.06C104.333 11.76 104.509 11.4967 104.723 11.27C104.943 11.0367 105.193 10.8567 105.473 10.73C105.759 10.5967 106.079 10.53 106.433 10.53C106.826 10.53 107.163 10.6133 107.443 10.78C107.729 10.9467 107.949 11.1867 108.103 11.5C108.256 11.8067 108.333 12.1733 108.333 12.6C108.333 12.94 108.296 13.2767 108.223 13.61C108.149 13.9433 108.043 14.26 107.903 14.56C107.763 14.8533 107.586 15.1167 107.373 15.35C107.159 15.5767 106.909 15.7567 106.623 15.89C106.343 16.0233 106.023 16.09 105.663 16.09ZM105.763 15.22C105.929 15.22 106.089 15.18 106.243 15.1C106.396 15.0133 106.533 14.8933 106.653 14.74C106.779 14.58 106.886 14.39 106.973 14.17C107.066 13.95 107.136 13.7033 107.183 13.43C107.236 13.1567 107.263 12.86 107.263 12.54C107.263 12.3467 107.233 12.1633 107.173 11.99C107.119 11.8167 107.029 11.6767 106.903 11.57C106.776 11.4567 106.603 11.4 106.383 11.4C106.189 11.4 106.009 11.45 105.843 11.55C105.683 11.6433 105.539 11.7767 105.413 11.95C105.293 12.1233 105.186 12.3233 105.093 12.55C105.006 12.77 104.939 13.01 104.893 13.27C104.853 13.5233 104.833 13.7833 104.833 14.05C104.833 14.4233 104.909 14.7133 105.063 14.92C105.223 15.12 105.456 15.22 105.763 15.22ZM110.532 16.1C110.266 16.1 110.036 16.0467 109.842 15.94C109.656 15.8333 109.512 15.6767 109.412 15.47C109.312 15.2633 109.262 15.0133 109.262 14.72C109.262 14.5733 109.272 14.4233 109.292 14.27C109.312 14.1167 109.339 13.9567 109.372 13.79L110.052 10.61H111.112L110.412 13.93C110.386 14.0633 110.362 14.1833 110.342 14.29C110.329 14.3967 110.322 14.4933 110.322 14.58C110.322 14.7867 110.369 14.9467 110.462 15.06C110.556 15.1733 110.706 15.23 110.912 15.23C111.126 15.23 111.339 15.1467 111.552 14.98C111.772 14.8133 111.976 14.56 112.162 14.22C112.349 13.8733 112.499 13.4367 112.612 12.91L113.102 10.61H114.142L113.002 16H112.162L112.272 15H112.232C112.106 15.18 111.959 15.3567 111.792 15.53C111.632 15.6967 111.449 15.8333 111.242 15.94C111.036 16.0467 110.799 16.1 110.532 16.1ZM114.548 16L115.698 10.61H116.528L116.418 11.61H116.468C116.608 11.41 116.755 11.23 116.908 11.07C117.062 10.9033 117.232 10.77 117.418 10.67C117.605 10.5633 117.815 10.51 118.048 10.51C118.135 10.51 118.225 10.5167 118.318 10.53C118.412 10.5367 118.492 10.55 118.558 10.57L118.318 11.55C118.245 11.53 118.168 11.5133 118.088 11.5C118.008 11.4867 117.925 11.48 117.838 11.48C117.625 11.48 117.425 11.5367 117.238 11.65C117.058 11.7633 116.895 11.9167 116.748 12.11C116.602 12.3033 116.475 12.5233 116.368 12.77C116.262 13.0167 116.178 13.2767 116.118 13.55L115.598 16H114.548ZM119.716 16.1C119.402 16.1 119.126 16.07 118.886 16.01C118.646 15.95 118.432 15.87 118.246 15.77L118.256 14.84C118.442 14.9533 118.659 15.0533 118.906 15.14C119.159 15.2267 119.416 15.27 119.676 15.27C119.896 15.27 120.079 15.24 120.226 15.18C120.379 15.1133 120.499 15.0233 120.586 14.91C120.672 14.79 120.716 14.6533 120.716 14.5C120.716 14.38 120.692 14.2767 120.646 14.19C120.599 14.0967 120.516 14.0033 120.396 13.91C120.282 13.8167 120.116 13.7067 119.896 13.58C119.669 13.44 119.479 13.3 119.326 13.16C119.172 13.02 119.056 12.8667 118.976 12.7C118.896 12.5267 118.856 12.3267 118.856 12.1C118.862 11.7667 118.939 11.4833 119.086 11.25C119.232 11.0167 119.442 10.8367 119.716 10.71C119.996 10.5767 120.326 10.51 120.706 10.51C121.012 10.51 121.299 10.5467 121.566 10.62C121.832 10.6933 122.072 10.79 122.286 10.91L121.946 11.71C121.772 11.6233 121.582 11.5433 121.376 11.47C121.176 11.3967 120.949 11.36 120.696 11.36C120.469 11.36 120.282 11.42 120.136 11.54C119.989 11.66 119.916 11.82 119.916 12.02C119.916 12.12 119.939 12.2133 119.986 12.3C120.032 12.38 120.112 12.4667 120.226 12.56C120.339 12.6467 120.496 12.7533 120.696 12.88C120.909 13.0067 121.099 13.1367 121.266 13.27C121.432 13.4033 121.562 13.56 121.656 13.74C121.749 13.9133 121.796 14.1267 121.796 14.38C121.789 14.7533 121.699 15.07 121.526 15.33C121.359 15.5833 121.119 15.7767 120.806 15.91C120.499 16.0367 120.136 16.1 119.716 16.1ZM123.964 16.1C123.65 16.1 123.374 16.07 123.134 16.01C122.894 15.95 122.68 15.87 122.494 15.77L122.504 14.84C122.69 14.9533 122.907 15.0533 123.154 15.14C123.407 15.2267 123.664 15.27 123.924 15.27C124.144 15.27 124.327 15.24 124.474 15.18C124.627 15.1133 124.747 15.0233 124.834 14.91C124.92 14.79 124.964 14.6533 124.964 14.5C124.964 14.38 124.94 14.2767 124.894 14.19C124.847 14.0967 124.764 14.0033 124.644 13.91C124.53 13.8167 124.364 13.7067 124.144 13.58C123.917 13.44 123.727 13.3 123.574 13.16C123.42 13.02 123.304 12.8667 123.224 12.7C123.144 12.5267 123.104 12.3267 123.104 12.1C123.11 11.7667 123.187 11.4833 123.334 11.25C123.48 11.0167 123.69 10.8367 123.964 10.71C124.244 10.5767 124.574 10.51 124.954 10.51C125.26 10.51 125.547 10.5467 125.814 10.62C126.08 10.6933 126.32 10.79 126.534 10.91L126.194 11.71C126.02 11.6233 125.83 11.5433 125.624 11.47C125.424 11.3967 125.197 11.36 124.944 11.36C124.717 11.36 124.53 11.42 124.384 11.54C124.237 11.66 124.164 11.82 124.164 12.02C124.164 12.12 124.187 12.2133 124.234 12.3C124.28 12.38 124.36 12.4667 124.474 12.56C124.587 12.6467 124.744 12.7533 124.944 12.88C125.157 13.0067 125.347 13.1367 125.514 13.27C125.68 13.4033 125.81 13.56 125.904 13.74C125.997 13.9133 126.044 14.1267 126.044 14.38C126.037 14.7533 125.947 15.07 125.774 15.33C125.607 15.5833 125.367 15.7767 125.054 15.91C124.747 16.0367 124.384 16.1 123.964 16.1ZM128.472 16.1C128.205 16.1 127.975 16.0467 127.782 15.94C127.595 15.8333 127.452 15.6767 127.352 15.47C127.252 15.2633 127.202 15.0133 127.202 14.72C127.202 14.5733 127.212 14.4233 127.232 14.27C127.252 14.1167 127.279 13.9567 127.312 13.79L127.992 10.61H129.052L128.352 13.93C128.325 14.0633 128.302 14.1833 128.282 14.29C128.269 14.3967 128.262 14.4933 128.262 14.58C128.262 14.7867 128.309 14.9467 128.402 15.06C128.495 15.1733 128.645 15.23 128.852 15.23C129.065 15.23 129.279 15.1467 129.492 14.98C129.712 14.8133 129.915 14.56 130.102 14.22C130.289 13.8733 130.439 13.4367 130.552 12.91L131.042 10.61H132.082L130.942 16H130.102L130.212 15H130.172C130.045 15.18 129.899 15.3567 129.732 15.53C129.572 15.6967 129.389 15.8333 129.182 15.94C128.975 16.0467 128.739 16.1 128.472 16.1Z" fill="white"/>
<path d="M144.152 16L144.732 13.31L143.682 8.86H144.762L145.452 12.24L147.522 8.86H148.732L145.782 13.33L145.222 16H144.152ZM149.663 16.09C149.276 16.09 148.939 16.0067 148.653 15.84C148.373 15.6733 148.153 15.4367 147.993 15.13C147.839 14.8233 147.763 14.46 147.763 14.04C147.763 13.7 147.799 13.36 147.873 13.02C147.946 12.68 148.053 12.36 148.193 12.06C148.333 11.76 148.509 11.4967 148.723 11.27C148.943 11.0367 149.193 10.8567 149.473 10.73C149.759 10.5967 150.079 10.53 150.433 10.53C150.826 10.53 151.163 10.6133 151.443 10.78C151.729 10.9467 151.949 11.1867 152.103 11.5C152.256 11.8067 152.333 12.1733 152.333 12.6C152.333 12.94 152.296 13.2767 152.223 13.61C152.149 13.9433 152.043 14.26 151.903 14.56C151.763 14.8533 151.586 15.1167 151.373 15.35C151.159 15.5767 150.909 15.7567 150.623 15.89C150.343 16.0233 150.023 16.09 149.663 16.09ZM149.763 15.22C149.929 15.22 150.089 15.18 150.243 15.1C150.396 15.0133 150.533 14.8933 150.653 14.74C150.779 14.58 150.886 14.39 150.973 14.17C151.066 13.95 151.136 13.7033 151.183 13.43C151.236 13.1567 151.263 12.86 151.263 12.54C151.263 12.3467 151.233 12.1633 151.173 11.99C151.119 11.8167 151.029 11.6767 150.903 11.57C150.776 11.4567 150.603 11.4 150.383 11.4C150.189 11.4 150.009 11.45 149.843 11.55C149.683 11.6433 149.539 11.7767 149.413 11.95C149.293 12.1233 149.186 12.3233 149.093 12.55C149.006 12.77 148.939 13.01 148.893 13.27C148.853 13.5233 148.833 13.7833 148.833 14.05C148.833 14.4233 148.909 14.7133 149.063 14.92C149.223 15.12 149.456 15.22 149.763 15.22ZM154.532 16.1C154.266 16.1 154.036 16.0467 153.842 15.94C153.656 15.8333 153.512 15.6767 153.412 15.47C153.312 15.2633 153.262 15.0133 153.262 14.72C153.262 14.5733 153.272 14.4233 153.292 14.27C153.312 14.1167 153.339 13.9567 153.372 13.79L154.052 10.61H155.112L154.412 13.93C154.386 14.0633 154.362 14.1833 154.342 14.29C154.329 14.3967 154.322 14.4933 154.322 14.58C154.322 14.7867 154.369 14.9467 154.462 15.06C154.556 15.1733 154.706 15.23 154.912 15.23C155.126 15.23 155.339 15.1467 155.552 14.98C155.772 14.8133 155.976 14.56 156.162 14.22C156.349 13.8733 156.499 13.4367 156.612 12.91L157.102 10.61H158.142L157.002 16H156.162L156.272 15H156.232C156.106 15.18 155.959 15.3567 155.792 15.53C155.632 15.6967 155.449 15.8333 155.242 15.94C155.036 16.0467 154.799 16.1 154.532 16.1ZM158.548 16L159.698 10.61H160.528L160.418 11.61H160.468C160.608 11.41 160.755 11.23 160.908 11.07C161.062 10.9033 161.232 10.77 161.418 10.67C161.605 10.5633 161.815 10.51 162.048 10.51C162.135 10.51 162.225 10.5167 162.318 10.53C162.412 10.5367 162.492 10.55 162.558 10.57L162.318 11.55C162.245 11.53 162.168 11.5133 162.088 11.5C162.008 11.4867 161.925 11.48 161.838 11.48C161.625 11.48 161.425 11.5367 161.238 11.65C161.058 11.7633 160.895 11.9167 160.748 12.11C160.602 12.3033 160.475 12.5233 160.368 12.77C160.262 13.0167 160.178 13.2767 160.118 13.55L159.598 16H158.548ZM163.716 16.1C163.402 16.1 163.126 16.07 162.886 16.01C162.646 15.95 162.432 15.87 162.246 15.77L162.256 14.84C162.442 14.9533 162.659 15.0533 162.906 15.14C163.159 15.2267 163.416 15.27 163.676 15.27C163.896 15.27 164.079 15.24 164.226 15.18C164.379 15.1133 164.499 15.0233 164.586 14.91C164.672 14.79 164.716 14.6533 164.716 14.5C164.716 14.38 164.692 14.2767 164.646 14.19C164.599 14.0967 164.516 14.0033 164.396 13.91C164.282 13.8167 164.116 13.7067 163.896 13.58C163.669 13.44 163.479 13.3 163.326 13.16C163.172 13.02 163.056 12.8667 162.976 12.7C162.896 12.5267 162.856 12.3267 162.856 12.1C162.862 11.7667 162.939 11.4833 163.086 11.25C163.232 11.0167 163.442 10.8367 163.716 10.71C163.996 10.5767 164.326 10.51 164.706 10.51C165.012 10.51 165.299 10.5467 165.566 10.62C165.832 10.6933 166.072 10.79 166.286 10.91L165.946 11.71C165.772 11.6233 165.582 11.5433 165.376 11.47C165.176 11.3967 164.949 11.36 164.696 11.36C164.469 11.36 164.282 11.42 164.136 11.54C163.989 11.66 163.916 11.82 163.916 12.02C163.916 12.12 163.939 12.2133 163.986 12.3C164.032 12.38 164.112 12.4667 164.226 12.56C164.339 12.6467 164.496 12.7533 164.696 12.88C164.909 13.0067 165.099 13.1367 165.266 13.27C165.432 13.4033 165.562 13.56 165.656 13.74C165.749 13.9133 165.796 14.1267 165.796 14.38C165.789 14.7533 165.699 15.07 165.526 15.33C165.359 15.5833 165.119 15.7767 164.806 15.91C164.499 16.0367 164.136 16.1 163.716 16.1ZM167.964 16.1C167.65 16.1 167.374 16.07 167.134 16.01C166.894 15.95 166.68 15.87 166.494 15.77L166.504 14.84C166.69 14.9533 166.907 15.0533 167.154 15.14C167.407 15.2267 167.664 15.27 167.924 15.27C168.144 15.27 168.327 15.24 168.474 15.18C168.627 15.1133 168.747 15.0233 168.834 14.91C168.92 14.79 168.964 14.6533 168.964 14.5C168.964 14.38 168.94 14.2767 168.894 14.19C168.847 14.0967 168.764 14.0033 168.644 13.91C168.53 13.8167 168.364 13.7067 168.144 13.58C167.917 13.44 167.727 13.3 167.574 13.16C167.42 13.02 167.304 12.8667 167.224 12.7C167.144 12.5267 167.104 12.3267 167.104 12.1C167.11 11.7667 167.187 11.4833 167.334 11.25C167.48 11.0167 167.69 10.8367 167.964 10.71C168.244 10.5767 168.574 10.51 168.954 10.51C169.26 10.51 169.547 10.5467 169.814 10.62C170.08 10.6933 170.32 10.79 170.534 10.91L170.194 11.71C170.02 11.6233 169.83 11.5433 169.624 11.47C169.424 11.3967 169.197 11.36 168.944 11.36C168.717 11.36 168.53 11.42 168.384 11.54C168.237 11.66 168.164 11.82 168.164 12.02C168.164 12.12 168.187 12.2133 168.234 12.3C168.28 12.38 168.36 12.4667 168.474 12.56C168.587 12.6467 168.744 12.7533 168.944 12.88C169.157 13.0067 169.347 13.1367 169.514 13.27C169.68 13.4033 169.81 13.56 169.904 13.74C169.997 13.9133 170.044 14.1267 170.044 14.38C170.037 14.7533 169.947 15.07 169.774 15.33C169.607 15.5833 169.367 15.7767 169.054 15.91C168.747 16.0367 168.384 16.1 167.964 16.1ZM172.472 16.1C172.205 16.1 171.975 16.0467 171.782 15.94C171.595 15.8333 171.452 15.6767 171.352 15.47C171.252 15.2633 171.202 15.0133 171.202 14.72C171.202 14.5733 171.212 14.4233 171.232 14.27C171.252 14.1167 171.279 13.9567 171.312 13.79L171.992 10.61H173.052L172.352 13.93C172.325 14.0633 172.302 14.1833 172.282 14.29C172.269 14.3967 172.262 14.4933 172.262 14.58C172.262 14.7867 172.309 14.9467 172.402 15.06C172.495 15.1733 172.645 15.23 172.852 15.23C173.065 15.23 173.279 15.1467 173.492 14.98C173.712 14.8133 173.915 14.56 174.102 14.22C174.289 13.8733 174.439 13.4367 174.552 12.91L175.042 10.61H176.082L174.942 16H174.102L174.212 15H174.172C174.045 15.18 173.899 15.3567 173.732 15.53C173.572 15.6967 173.389 15.8333 173.182 15.94C172.975 16.0467 172.739 16.1 172.472 16.1Z" fill="white"/>
<path d="M188.152 16L188.732 13.31L187.682 8.86H188.762L189.452 12.24L191.522 8.86H192.732L189.782 13.33L189.222 16H188.152ZM193.663 16.09C193.276 16.09 192.939 16.0067 192.653 15.84C192.373 15.6733 192.153 15.4367 191.993 15.13C191.839 14.8233 191.763 14.46 191.763 14.04C191.763 13.7 191.799 13.36 191.873 13.02C191.946 12.68 192.053 12.36 192.193 12.06C192.333 11.76 192.509 11.4967 192.723 11.27C192.943 11.0367 193.193 10.8567 193.473 10.73C193.759 10.5967 194.079 10.53 194.433 10.53C194.826 10.53 195.163 10.6133 195.443 10.78C195.729 10.9467 195.949 11.1867 196.103 11.5C196.256 11.8067 196.333 12.1733 196.333 12.6C196.333 12.94 196.296 13.2767 196.223 13.61C196.149 13.9433 196.043 14.26 195.903 14.56C195.763 14.8533 195.586 15.1167 195.373 15.35C195.159 15.5767 194.909 15.7567 194.623 15.89C194.343 16.0233 194.023 16.09 193.663 16.09ZM193.763 15.22C193.929 15.22 194.089 15.18 194.243 15.1C194.396 15.0133 194.533 14.8933 194.653 14.74C194.779 14.58 194.886 14.39 194.973 14.17C195.066 13.95 195.136 13.7033 195.183 13.43C195.236 13.1567 195.263 12.86 195.263 12.54C195.263 12.3467 195.233 12.1633 195.173 11.99C195.119 11.8167 195.029 11.6767 194.903 11.57C194.776 11.4567 194.603 11.4 194.383 11.4C194.189 11.4 194.009 11.45 193.843 11.55C193.683 11.6433 193.539 11.7767 193.413 11.95C193.293 12.1233 193.186 12.3233 193.093 12.55C193.006 12.77 192.939 13.01 192.893 13.27C192.853 13.5233 192.833 13.7833 192.833 14.05C192.833 14.4233 192.909 14.7133 193.063 14.92C193.223 15.12 193.456 15.22 193.763 15.22ZM198.532 16.1C198.266 16.1 198.036 16.0467 197.842 15.94C197.656 15.8333 197.512 15.6767 197.412 15.47C197.312 15.2633 197.262 15.0133 197.262 14.72C197.262 14.5733 197.272 14.4233 197.292 14.27C197.312 14.1167 197.339 13.9567 197.372 13.79L198.052 10.61H199.112L198.412 13.93C198.386 14.0633 198.362 14.1833 198.342 14.29C198.329 14.3967 198.322 14.4933 198.322 14.58C198.322 14.7867 198.369 14.9467 198.462 15.06C198.556 15.1733 198.706 15.23 198.912 15.23C199.126 15.23 199.339 15.1467 199.552 14.98C199.772 14.8133 199.976 14.56 200.162 14.22C200.349 13.8733 200.499 13.4367 200.612 12.91L201.102 10.61H202.142L201.002 16H200.162L200.272 15H200.232C200.106 15.18 199.959 15.3567 199.792 15.53C199.632 15.6967 199.449 15.8333 199.242 15.94C199.036 16.0467 198.799 16.1 198.532 16.1ZM202.548 16L203.698 10.61H204.528L204.418 11.61H204.468C204.608 11.41 204.755 11.23 204.908 11.07C205.062 10.9033 205.232 10.77 205.418 10.67C205.605 10.5633 205.815 10.51 206.048 10.51C206.135 10.51 206.225 10.5167 206.318 10.53C206.412 10.5367 206.492 10.55 206.558 10.57L206.318 11.55C206.245 11.53 206.168 11.5133 206.088 11.5C206.008 11.4867 205.925 11.48 205.838 11.48C205.625 11.48 205.425 11.5367 205.238 11.65C205.058 11.7633 204.895 11.9167 204.748 12.11C204.602 12.3033 204.475 12.5233 204.368 12.77C204.262 13.0167 204.178 13.2767 204.118 13.55L203.598 16H202.548ZM207.716 16.1C207.402 16.1 207.126 16.07 206.886 16.01C206.646 15.95 206.432 15.87 206.246 15.77L206.256 14.84C206.442 14.9533 206.659 15.0533 206.906 15.14C207.159 15.2267 207.416 15.27 207.676 15.27C207.896 15.27 208.079 15.24 208.226 15.18C208.379 15.1133 208.499 15.0233 208.586 14.91C208.672 14.79 208.716 14.6533 208.716 14.5C208.716 14.38 208.692 14.2767 208.646 14.19C208.599 14.0967 208.516 14.0033 208.396 13.91C208.282 13.8167 208.116 13.7067 207.896 13.58C207.669 13.44 207.479 13.3 207.326 13.16C207.172 13.02 207.056 12.8667 206.976 12.7C206.896 12.5267 206.856 12.3267 206.856 12.1C206.862 11.7667 206.939 11.4833 207.086 11.25C207.232 11.0167 207.442 10.8367 207.716 10.71C207.996 10.5767 208.326 10.51 208.706 10.51C209.012 10.51 209.299 10.5467 209.566 10.62C209.832 10.6933 210.072 10.79 210.286 10.91L209.946 11.71C209.772 11.6233 209.582 11.5433 209.376 11.47C209.176 11.3967 208.949 11.36 208.696 11.36C208.469 11.36 208.282 11.42 208.136 11.54C207.989 11.66 207.916 11.82 207.916 12.02C207.916 12.12 207.939 12.2133 207.986 12.3C208.032 12.38 208.112 12.4667 208.226 12.56C208.339 12.6467 208.496 12.7533 208.696 12.88C208.909 13.0067 209.099 13.1367 209.266 13.27C209.432 13.4033 209.562 13.56 209.656 13.74C209.749 13.9133 209.796 14.1267 209.796 14.38C209.789 14.7533 209.699 15.07 209.526 15.33C209.359 15.5833 209.119 15.7767 208.806 15.91C208.499 16.0367 208.136 16.1 207.716 16.1ZM211.964 16.1C211.65 16.1 211.374 16.07 211.134 16.01C210.894 15.95 210.68 15.87 210.494 15.77L210.504 14.84C210.69 14.9533 210.907 15.0533 211.154 15.14C211.407 15.2267 211.664 15.27 211.924 15.27C212.144 15.27 212.327 15.24 212.474 15.18C212.627 15.1133 212.747 15.0233 212.834 14.91C212.92 14.79 212.964 14.6533 212.964 14.5C212.964 14.38 212.94 14.2767 212.894 14.19C212.847 14.0967 212.764 14.0033 212.644 13.91C212.53 13.8167 212.364 13.7067 212.144 13.58C211.917 13.44 211.727 13.3 211.574 13.16C211.42 13.02 211.304 12.8667 211.224 12.7C211.144 12.5267 211.104 12.3267 211.104 12.1C211.11 11.7667 211.187 11.4833 211.334 11.25C211.48 11.0167 211.69 10.8367 211.964 10.71C212.244 10.5767 212.574 10.51 212.954 10.51C213.26 10.51 213.547 10.5467 213.814 10.62C214.08 10.6933 214.32 10.79 214.534 10.91L214.194 11.71C214.02 11.6233 213.83 11.5433 213.624 11.47C213.424 11.3967 213.197 11.36 212.944 11.36C212.717 11.36 212.53 11.42 212.384 11.54C212.237 11.66 212.164 11.82 212.164 12.02C212.164 12.12 212.187 12.2133 212.234 12.3C212.28 12.38 212.36 12.4667 212.474 12.56C212.587 12.6467 212.744 12.7533 212.944 12.88C213.157 13.0067 213.347 13.1367 213.514 13.27C213.68 13.4033 213.81 13.56 213.904 13.74C213.997 13.9133 214.044 14.1267 214.044 14.38C214.037 14.7533 213.947 15.07 213.774 15.33C213.607 15.5833 213.367 15.7767 213.054 15.91C212.747 16.0367 212.384 16.1 211.964 16.1ZM216.472 16.1C216.205 16.1 215.975 16.0467 215.782 15.94C215.595 15.8333 215.452 15.6767 215.352 15.47C215.252 15.2633 215.202 15.0133 215.202 14.72C215.202 14.5733 215.212 14.4233 215.232 14.27C215.252 14.1167 215.279 13.9567 215.312 13.79L215.992 10.61H217.052L216.352 13.93C216.325 14.0633 216.302 14.1833 216.282 14.29C216.269 14.3967 216.262 14.4933 216.262 14.58C216.262 14.7867 216.309 14.9467 216.402 15.06C216.495 15.1733 216.645 15.23 216.852 15.23C217.065 15.23 217.279 15.1467 217.492 14.98C217.712 14.8133 217.915 14.56 218.102 14.22C218.289 13.8733 218.439 13.4367 218.552 12.91L219.042 10.61H220.082L218.942 16H218.102L218.212 15H218.172C218.045 15.18 217.899 15.3567 217.732 15.53C217.572 15.6967 217.389 15.8333 217.182 15.94C216.975 16.0467 216.739 16.1 216.472 16.1Z" fill="white"/>
<path d="M232.152 16L232.732 13.31L231.682 8.86H232.762L233.452 12.24L235.522 8.86H236.732L233.782 13.33L233.222 16H232.152ZM237.663 16.09C237.276 16.09 236.939 16.0067 236.653 15.84C236.373 15.6733 236.153 15.4367 235.993 15.13C235.839 14.8233 235.763 14.46 235.763 14.04C235.763 13.7 235.799 13.36 235.873 13.02C235.946 12.68 236.053 12.36 236.193 12.06C236.333 11.76 236.509 11.4967 236.723 11.27C236.943 11.0367 237.193 10.8567 237.473 10.73C237.759 10.5967 238.079 10.53 238.433 10.53C238.826 10.53 239.163 10.6133 239.443 10.78C239.729 10.9467 239.949 11.1867 240.103 11.5C240.256 11.8067 240.333 12.1733 240.333 12.6C240.333 12.94 240.296 13.2767 240.223 13.61C240.149 13.9433 240.043 14.26 239.903 14.56C239.763 14.8533 239.586 15.1167 239.373 15.35C239.159 15.5767 238.909 15.7567 238.623 15.89C238.343 16.0233 238.023 16.09 237.663 16.09ZM237.763 15.22C237.929 15.22 238.089 15.18 238.243 15.1C238.396 15.0133 238.533 14.8933 238.653 14.74C238.779 14.58 238.886 14.39 238.973 14.17C239.066 13.95 239.136 13.7033 239.183 13.43C239.236 13.1567 239.263 12.86 239.263 12.54C239.263 12.3467 239.233 12.1633 239.173 11.99C239.119 11.8167 239.029 11.6767 238.903 11.57C238.776 11.4567 238.603 11.4 238.383 11.4C238.189 11.4 238.009 11.45 237.843 11.55C237.683 11.6433 237.539 11.7767 237.413 11.95C237.293 12.1233 237.186 12.3233 237.093 12.55C237.006 12.77 236.939 13.01 236.893 13.27C236.853 13.5233 236.833 13.7833 236.833 14.05C236.833 14.4233 236.909 14.7133 237.063 14.92C237.223 15.12 237.456 15.22 237.763 15.22ZM242.532 16.1C242.266 16.1 242.036 16.0467 241.842 15.94C241.656 15.8333 241.512 15.6767 241.412 15.47C241.312 15.2633 241.262 15.0133 241.262 14.72C241.262 14.5733 241.272 14.4233 241.292 14.27C241.312 14.1167 241.339 13.9567 241.372 13.79L242.052 10.61H243.112L242.412 13.93C242.386 14.0633 242.362 14.1833 242.342 14.29C242.329 14.3967 242.322 14.4933 242.322 14.58C242.322 14.7867 242.369 14.9467 242.462 15.06C242.556 15.1733 242.706 15.23 242.912 15.23C243.126 15.23 243.339 15.1467 243.552 14.98C243.772 14.8133 243.976 14.56 244.162 14.22C244.349 13.8733 244.499 13.4367 244.612 12.91L245.102 10.61H246.142L245.002 16H244.162L244.272 15H244.232C244.106 15.18 243.959 15.3567 243.792 15.53C243.632 15.6967 243.449 15.8333 243.242 15.94C243.036 16.0467 242.799 16.1 242.532 16.1ZM246.548 16L247.698 10.61H248.528L248.418 11.61H248.468C248.608 11.41 248.755 11.23 248.908 11.07C249.062 10.9033 249.232 10.77 249.418 10.67C249.605 10.5633 249.815 10.51 250.048 10.51C250.135 10.51 250.225 10.5167 250.318 10.53C250.412 10.5367 250.492 10.55 250.558 10.57L250.318 11.55C250.245 11.53 250.168 11.5133 250.088 11.5C250.008 11.4867 249.925 11.48 249.838 11.48C249.625 11.48 249.425 11.5367 249.238 11.65C249.058 11.7633 248.895 11.9167 248.748 12.11C248.602 12.3033 248.475 12.5233 248.368 12.77C248.262 13.0167 248.178 13.2767 248.118 13.55L247.598 16H246.548ZM251.716 16.1C251.402 16.1 251.126 16.07 250.886 16.01C250.646 15.95 250.432 15.87 250.246 15.77L250.256 14.84C250.442 14.9533 250.659 15.0533 250.906 15.14C251.159 15.2267 251.416 15.27 251.676 15.27C251.896 15.27 252.079 15.24 252.226 15.18C252.379 15.1133 252.499 15.0233 252.586 14.91C252.672 14.79 252.716 14.6533 252.716 14.5C252.716 14.38 252.692 14.2767 252.646 14.19C252.599 14.0967 252.516 14.0033 252.396 13.91C252.282 13.8167 252.116 13.7067 251.896 13.58C251.669 13.44 251.479 13.3 251.326 13.16C251.172 13.02 251.056 12.8667 250.976 12.7C250.896 12.5267 250.856 12.3267 250.856 12.1C250.862 11.7667 250.939 11.4833 251.086 11.25C251.232 11.0167 251.442 10.8367 251.716 10.71C251.996 10.5767 252.326 10.51 252.706 10.51C253.012 10.51 253.299 10.5467 253.566 10.62C253.832 10.6933 254.072 10.79 254.286 10.91L253.946 11.71C253.772 11.6233 253.582 11.5433 253.376 11.47C253.176 11.3967 252.949 11.36 252.696 11.36C252.469 11.36 252.282 11.42 252.136 11.54C251.989 11.66 251.916 11.82 251.916 12.02C251.916 12.12 251.939 12.2133 251.986 12.3C252.032 12.38 252.112 12.4667 252.226 12.56C252.339 12.6467 252.496 12.7533 252.696 12.88C252.909 13.0067 253.099 13.1367 253.266 13.27C253.432 13.4033 253.562 13.56 253.656 13.74C253.749 13.9133 253.796 14.1267 253.796 14.38C253.789 14.7533 253.699 15.07 253.526 15.33C253.359 15.5833 253.119 15.7767 252.806 15.91C252.499 16.0367 252.136 16.1 251.716 16.1ZM255.964 16.1C255.65 16.1 255.374 16.07 255.134 16.01C254.894 15.95 254.68 15.87 254.494 15.77L254.504 14.84C254.69 14.9533 254.907 15.0533 255.154 15.14C255.407 15.2267 255.664 15.27 255.924 15.27C256.144 15.27 256.327 15.24 256.474 15.18C256.627 15.1133 256.747 15.0233 256.834 14.91C256.92 14.79 256.964 14.6533 256.964 14.5C256.964 14.38 256.94 14.2767 256.894 14.19C256.847 14.0967 256.764 14.0033 256.644 13.91C256.53 13.8167 256.364 13.7067 256.144 13.58C255.917 13.44 255.727 13.3 255.574 13.16C255.42 13.02 255.304 12.8667 255.224 12.7C255.144 12.5267 255.104 12.3267 255.104 12.1C255.11 11.7667 255.187 11.4833 255.334 11.25C255.48 11.0167 255.69 10.8367 255.964 10.71C256.244 10.5767 256.574 10.51 256.954 10.51C257.26 10.51 257.547 10.5467 257.814 10.62C258.08 10.6933 258.32 10.79 258.534 10.91L258.194 11.71C258.02 11.6233 257.83 11.5433 257.624 11.47C257.424 11.3967 257.197 11.36 256.944 11.36C256.717 11.36 256.53 11.42 256.384 11.54C256.237 11.66 256.164 11.82 256.164 12.02C256.164 12.12 256.187 12.2133 256.234 12.3C256.28 12.38 256.36 12.4667 256.474 12.56C256.587 12.6467 256.744 12.7533 256.944 12.88C257.157 13.0067 257.347 13.1367 257.514 13.27C257.68 13.4033 257.81 13.56 257.904 13.74C257.997 13.9133 258.044 14.1267 258.044 14.38C258.037 14.7533 257.947 15.07 257.774 15.33C257.607 15.5833 257.367 15.7767 257.054 15.91C256.747 16.0367 256.384 16.1 255.964 16.1ZM260.472 16.1C260.205 16.1 259.975 16.0467 259.782 15.94C259.595 15.8333 259.452 15.6767 259.352 15.47C259.252 15.2633 259.202 15.0133 259.202 14.72C259.202 14.5733 259.212 14.4233 259.232 14.27C259.252 14.1167 259.279 13.9567 259.312 13.79L259.992 10.61H261.052L260.352 13.93C260.325 14.0633 260.302 14.1833 260.282 14.29C260.269 14.3967 260.262 14.4933 260.262 14.58C260.262 14.7867 260.309 14.9467 260.402 15.06C260.495 15.1733 260.645 15.23 260.852 15.23C261.065 15.23 261.279 15.1467 261.492 14.98C261.712 14.8133 261.915 14.56 262.102 14.22C262.289 13.8733 262.439 13.4367 262.552 12.91L263.042 10.61H264.082L262.942 16H262.102L262.212 15H262.172C262.045 15.18 261.899 15.3567 261.732 15.53C261.572 15.6967 261.389 15.8333 261.182 15.94C260.975 16.0467 260.739 16.1 260.472 16.1Z" fill="white"/>
<path d="M276.152 16L276.732 13.31L275.682 8.86H276.762L277.452 12.24L279.522 8.86H280.732L277.782 13.33L277.222 16H276.152ZM281.663 16.09C281.276 16.09 280.939 16.0067 280.653 15.84C280.373 15.6733 280.153 15.4367 279.993 15.13C279.839 14.8233 279.763 14.46 279.763 14.04C279.763 13.7 279.799 13.36 279.873 13.02C279.946 12.68 280.053 12.36 280.193 12.06C280.333 11.76 280.509 11.4967 280.723 11.27C280.943 11.0367 281.193 10.8567 281.473 10.73C281.759 10.5967 282.079 10.53 282.433 10.53C282.826 10.53 283.163 10.6133 283.443 10.78C283.729 10.9467 283.949 11.1867 284.103 11.5C284.256 11.8067 284.333 12.1733 284.333 12.6C284.333 12.94 284.296 13.2767 284.223 13.61C284.149 13.9433 284.043 14.26 283.903 14.56C283.763 14.8533 283.586 15.1167 283.373 15.35C283.159 15.5767 282.909 15.7567 282.623 15.89C282.343 16.0233 282.023 16.09 281.663 16.09ZM281.763 15.22C281.929 15.22 282.089 15.18 282.243 15.1C282.396 15.0133 282.533 14.8933 282.653 14.74C282.779 14.58 282.886 14.39 282.973 14.17C283.066 13.95 283.136 13.7033 283.183 13.43C283.236 13.1567 283.263 12.86 283.263 12.54C283.263 12.3467 283.233 12.1633 283.173 11.99C283.119 11.8167 283.029 11.6767 282.903 11.57C282.776 11.4567 282.603 11.4 282.383 11.4C282.189 11.4 282.009 11.45 281.843 11.55C281.683 11.6433 281.539 11.7767 281.413 11.95C281.293 12.1233 281.186 12.3233 281.093 12.55C281.006 12.77 280.939 13.01 280.893 13.27C280.853 13.5233 280.833 13.7833 280.833 14.05C280.833 14.4233 280.909 14.7133 281.063 14.92C281.223 15.12 281.456 15.22 281.763 15.22ZM286.532 16.1C286.266 16.1 286.036 16.0467 285.842 15.94C285.656 15.8333 285.512 15.6767 285.412 15.47C285.312 15.2633 285.262 15.0133 285.262 14.72C285.262 14.5733 285.272 14.4233 285.292 14.27C285.312 14.1167 285.339 13.9567 285.372 13.79L286.052 10.61H287.112L286.412 13.93C286.386 14.0633 286.362 14.1833 286.342 14.29C286.329 14.3967 286.322 14.4933 286.322 14.58C286.322 14.7867 286.369 14.9467 286.462 15.06C286.556 15.1733 286.706 15.23 286.912 15.23C287.126 15.23 287.339 15.1467 287.552 14.98C287.772 14.8133 287.976 14.56 288.162 14.22C288.349 13.8733 288.499 13.4367 288.612 12.91L289.102 10.61H290.142L289.002 16H288.162L288.272 15H288.232C288.106 15.18 287.959 15.3567 287.792 15.53C287.632 15.6967 287.449 15.8333 287.242 15.94C287.036 16.0467 286.799 16.1 286.532 16.1ZM290.548 16L291.698 10.61H292.528L292.418 11.61H292.468C292.608 11.41 292.755 11.23 292.908 11.07C293.062 10.9033 293.232 10.77 293.418 10.67C293.605 10.5633 293.815 10.51 294.048 10.51C294.135 10.51 294.225 10.5167 294.318 10.53C294.412 10.5367 294.492 10.55 294.558 10.57L294.318 11.55C294.245 11.53 294.168 11.5133 294.088 11.5C294.008 11.4867 293.925 11.48 293.838 11.48C293.625 11.48 293.425 11.5367 293.238 11.65C293.058 11.7633 292.895 11.9167 292.748 12.11C292.602 12.3033 292.475 12.5233 292.368 12.77C292.262 13.0167 292.178 13.2767 292.118 13.55L291.598 16H290.548ZM295.716 16.1C295.402 16.1 295.126 16.07 294.886 16.01C294.646 15.95 294.432 15.87 294.246 15.77L294.256 14.84C294.442 14.9533 294.659 15.0533 294.906 15.14C295.159 15.2267 295.416 15.27 295.676 15.27C295.896 15.27 296.079 15.24 296.226 15.18C296.379 15.1133 296.499 15.0233 296.586 14.91C296.672 14.79 296.716 14.6533 296.716 14.5C296.716 14.38 296.692 14.2767 296.646 14.19C296.599 14.0967 296.516 14.0033 296.396 13.91C296.282 13.8167 296.116 13.7067 295.896 13.58C295.669 13.44 295.479 13.3 295.326 13.16C295.172 13.02 295.056 12.8667 294.976 12.7C294.896 12.5267 294.856 12.3267 294.856 12.1C294.862 11.7667 294.939 11.4833 295.086 11.25C295.232 11.0167 295.442 10.8367 295.716 10.71C295.996 10.5767 296.326 10.51 296.706 10.51C297.012 10.51 297.299 10.5467 297.566 10.62C297.832 10.6933 298.072 10.79 298.286 10.91L297.946 11.71C297.772 11.6233 297.582 11.5433 297.376 11.47C297.176 11.3967 296.949 11.36 296.696 11.36C296.469 11.36 296.282 11.42 296.136 11.54C295.989 11.66 295.916 11.82 295.916 12.02C295.916 12.12 295.939 12.2133 295.986 12.3C296.032 12.38 296.112 12.4667 296.226 12.56C296.339 12.6467 296.496 12.7533 296.696 12.88C296.909 13.0067 297.099 13.1367 297.266 13.27C297.432 13.4033 297.562 13.56 297.656 13.74C297.749 13.9133 297.796 14.1267 297.796 14.38C297.789 14.7533 297.699 15.07 297.526 15.33C297.359 15.5833 297.119 15.7767 296.806 15.91C296.499 16.0367 296.136 16.1 295.716 16.1ZM299.964 16.1C299.65 16.1 299.374 16.07 299.134 16.01C298.894 15.95 298.68 15.87 298.494 15.77L298.504 14.84C298.69 14.9533 298.907 15.0533 299.154 15.14C299.407 15.2267 299.664 15.27 299.924 15.27C300.144 15.27 300.327 15.24 300.474 15.18C300.627 15.1133 300.747 15.0233 300.834 14.91C300.92 14.79 300.964 14.6533 300.964 14.5C300.964 14.38 300.94 14.2767 300.894 14.19C300.847 14.0967 300.764 14.0033 300.644 13.91C300.53 13.8167 300.364 13.7067 300.144 13.58C299.917 13.44 299.727 13.3 299.574 13.16C299.42 13.02 299.304 12.8667 299.224 12.7C299.144 12.5267 299.104 12.3267 299.104 12.1C299.11 11.7667 299.187 11.4833 299.334 11.25C299.48 11.0167 299.69 10.8367 299.964 10.71C300.244 10.5767 300.574 10.51 300.954 10.51C301.26 10.51 301.547 10.5467 301.814 10.62C302.08 10.6933 302.32 10.79 302.534 10.91L302.194 11.71C302.02 11.6233 301.83 11.5433 301.624 11.47C301.424 11.3967 301.197 11.36 300.944 11.36C300.717 11.36 300.53 11.42 300.384 11.54C300.237 11.66 300.164 11.82 300.164 12.02C300.164 12.12 300.187 12.2133 300.234 12.3C300.28 12.38 300.36 12.4667 300.474 12.56C300.587 12.6467 300.744 12.7533 300.944 12.88C301.157 13.0067 301.347 13.1367 301.514 13.27C301.68 13.4033 301.81 13.56 301.904 13.74C301.997 13.9133 302.044 14.1267 302.044 14.38C302.037 14.7533 301.947 15.07 301.774 15.33C301.607 15.5833 301.367 15.7767 301.054 15.91C300.747 16.0367 300.384 16.1 299.964 16.1ZM304.472 16.1C304.205 16.1 303.975 16.0467 303.782 15.94C303.595 15.8333 303.452 15.6767 303.352 15.47C303.252 15.2633 303.202 15.0133 303.202 14.72C303.202 14.5733 303.212 14.4233 303.232 14.27C303.252 14.1167 303.279 13.9567 303.312 13.79L303.992 10.61H305.052L304.352 13.93C304.325 14.0633 304.302 14.1833 304.282 14.29C304.269 14.3967 304.262 14.4933 304.262 14.58C304.262 14.7867 304.309 14.9467 304.402 15.06C304.495 15.1733 304.645 15.23 304.852 15.23C305.065 15.23 305.279 15.1467 305.492 14.98C305.712 14.8133 305.915 14.56 306.102 14.22C306.289 13.8733 306.439 13.4367 306.552 12.91L307.042 10.61H308.082L306.942 16H306.102L306.212 15H306.172C306.045 15.18 305.899 15.3567 305.732 15.53C305.572 15.6967 305.389 15.8333 305.182 15.94C304.975 16.0467 304.739 16.1 304.472 16.1Z" fill="white"/>
</svg>
